<svg width="15" height="14" viewBox="0 0 15 14" fill="none" xmlns="http://www.w3.org/2000/svg">
  <path d="M13 7.5C13 10.5376 10.5376 13 7.5 13C4.46243 13 2 10.5376 2 7.5C2 4.46243 4.46243 2 7.5 2C10.5376 2 13 4.46243 13 7.5Z" fill="#1E1A6D" />
  <path d="M11.264 11.4537C11.8496 10.7745 12.17 9.90596 12.1659 9.00861C12.1659 6.99753 10.605 5.36779 8.67932 5.36779C7.98767 5.36782 7.31276 5.58083 6.74609 5.97794C6.74609 5.97794 7.66811 4.55493 10.5604 5.00953C13.4528 5.46413 13.9744 7.74064 13.8587 9.50886C13.4497 10.5815 12.7821 11.5361 11.9154 12.2876L11.264 11.4537Z" fill="url(#paint0_radial)" />
  <path d="M11.909 12.2893L11.9065 12.2948C11.7762 12.4077 11.6419 12.5176 11.5011 12.6224C10.5395 13.3368 9.41068 13.7917 8.22297 13.9435C7.71006 14.0091 7.19361 14.0172 6.68292 13.9691C6.01104 13.9057 5.26803 13.4678 4.63736 13.2124C3.52734 12.7629 2.76428 12.2417 2.01585 11.3059C1.26742 10.37 0.781356 9.39058 0.585938 8.2077L3.05624 8.57895C3.18932 8.8618 3.36557 9.56401 3.55173 9.81505C4.74785 11.4297 6.71465 11.9726 8.51258 11.4252C8.78569 11.3415 9.03757 11.1998 9.25104 11.0098C9.46451 10.8198 9.63457 10.5859 9.74961 10.3242C9.86465 10.0624 9.92197 9.77886 9.91767 9.49289C9.91337 9.20693 9.84755 8.92525 9.72469 8.66706C9.60183 8.40887 9.42482 8.18024 9.20573 7.99676C8.98664 7.81327 8.73062 7.67924 8.45512 7.6038C8.17962 7.52836 7.89111 7.51329 7.60926 7.55961C7.32741 7.60593 7.05885 7.71256 6.82188 7.87222C6.82188 7.87222 8.18035 6.7593 9.99783 7.38751C9.99783 7.38751 11.7406 7.94497 12.3159 9.80251C12.8912 11.66 11.909 12.2893 11.909 12.2893Z" fill="url(#paint1_radial)" />
  <path d="M13.8618 9.48618C14.2789 8.38959 14.4135 7.20545 14.253 6.04306C14.0926 4.88066 13.6423 3.77746 12.9438 2.83527C12.9217 2.80567 12.8982 2.77807 12.8761 2.74897L11.6615 2.12628L7.43024 1.37012L7.17969 2.28534C7.94116 2.26015 8.69736 2.4203 9.38345 2.75205C10.0695 3.08379 10.665 3.57723 11.1188 4.19004C11.3655 4.52218 11.5661 4.88627 11.7151 5.27235L11.9937 5.40983L13.5576 6.9628L13.932 8.62565L13.8713 9.36526L13.8618 9.48618Z" fill="url(#paint2_linear)" />
  <path d="M13.8579 9.50859C14.0801 8.80327 14.1348 8.05576 14.0179 7.32552C13.9009 6.59527 13.6154 5.90242 13.1841 5.30206C12.7528 4.70169 12.1875 4.21037 11.5333 3.86715C10.879 3.52394 10.1538 3.3383 9.41535 3.32499C8.67688 3.31168 7.94549 3.47107 7.27934 3.79049C6.61318 4.10991 6.03064 4.58055 5.57801 5.16498C5.12539 5.74942 4.81518 6.43153 4.67204 7.15709C4.52891 7.88265 4.55679 8.63164 4.75348 9.34451C4.86263 8.1979 5.3999 7.13478 6.25791 6.36763C7.11592 5.60048 8.23145 5.18583 9.38153 5.20656C10.5316 5.22728 11.6315 5.68186 12.4614 6.47943C13.2913 7.27699 13.79 8.35879 13.8579 9.50859V9.50859Z" fill="url(#paint3_linear)" />
  <path d="M11.9035 12.2962C12.23 11.9678 12.4856 11.5757 12.6544 11.1442C12.8232 10.7128 12.9017 10.2512 12.8849 9.78813C12.8681 9.32506 12.7565 8.87038 12.5569 8.45231C12.3573 8.03425 12.074 7.66172 11.7247 7.35785C11.3753 7.05399 10.9673 6.82526 10.5259 6.68589C10.0846 6.54651 9.61938 6.49945 9.15913 6.54762C8.69887 6.5958 8.25342 6.73819 7.85042 6.96595C7.44742 7.19371 7.09546 7.50197 6.81641 7.87162C7.45413 7.45271 8.21103 7.25381 8.97199 7.30517C9.73296 7.35654 10.4564 7.65535 11.0322 8.15616C11.608 8.65698 12.0047 9.33239 12.162 10.0797C12.3193 10.827 12.2285 11.6053 11.9035 12.2962V12.2962Z" fill="url(#paint4_radial)" />
  <path d="M5.51688 3.33705C6.72901 2.43716 8.2285 2.01337 9.73163 2.14587C11.2348 2.27837 12.6372 2.95797 13.6737 4.05608C13.1566 2.93857 12.3542 1.97751 11.3474 1.26998C10.3406 0.562444 9.16518 0.133499 7.93984 0.0264743C6.71451 -0.0805508 5.48267 0.138135 4.36876 0.660441C3.25485 1.18275 2.29833 1.99017 1.59582 3.00115C0.893315 4.01213 0.469706 5.19086 0.367787 6.41825C0.265867 7.64565 0.489248 8.87824 1.01536 9.99151C1.54148 11.1048 2.35169 12.0593 3.36416 12.7587C4.37663 13.458 5.55548 13.8774 6.78164 13.9745C5.78215 13.5497 4.91246 12.8681 4.26059 11.9986C3.60872 11.1291 3.19781 10.1026 3.06944 9.02293C2.94108 7.94331 3.09982 6.84889 3.52959 5.85044C3.95936 4.85199 4.64492 3.98494 5.51688 3.33705V3.33705Z" fill="url(#paint5_linear)" />
  <defs>
    <radialGradient id="paint0_radial" cx="0" cy="0" r="1" gradientUnits="userSpaceOnUse" gradientTransform="translate(9.15687 7.09738) scale(5.01647 5.02318)">
      <stop offset="0.31" stop-color="#1C1564" />
      <stop offset="0.32" stop-color="#1C1666" />
      <stop offset="0.63" stop-color="#262E97" />
      <stop offset="0.87" stop-color="#2C3CB6" />
      <stop offset="1" stop-color="#2E42C1" />
    </radialGradient>
    <radialGradient id="paint1_radial" cx="0" cy="0" r="1" gradientUnits="userSpaceOnUse" gradientTransform="translate(6.31177 8.90684) scale(5.74757 5.06462)">
      <stop offset="0.4" stop-color="#1C1564" />
      <stop offset="0.41" stop-color="#1C1666" />
      <stop offset="0.68" stop-color="#262E97" />
      <stop offset="0.89" stop-color="#2C3CB6" />
      <stop offset="1" stop-color="#2E42C1" />
    </radialGradient>
    <linearGradient id="paint2_linear" x1="10.7492" y1="1.37012" x2="14.6012" y2="7.53379" gradientUnits="userSpaceOnUse">
      <stop stop-color="#1B1461" />
      <stop offset="1" stop-color="#2E42C1" />
    </linearGradient>
    <linearGradient id="paint3_linear" x1="3.75429" y1="5.56923" x2="14.9331" y2="7.98557" gradientUnits="userSpaceOnUse">
      <stop stop-color="#46FFD7" />
      <stop offset="0.28" stop-color="#3ECFE7" />
      <stop offset="0.3" stop-color="#3DC5E5" />
      <stop offset="0.39" stop-color="#399CDC" />
      <stop offset="0.47" stop-color="#367ED6" />
      <stop offset="0.54" stop-color="#346CD2" />
      <stop offset="0.59" stop-color="#3365D1" />
      <stop offset="0.6" stop-color="#3465D1" />
      <stop offset="0.69" stop-color="#6469CB" />
      <stop offset="0.78" stop-color="#8A6CC6" />
      <stop offset="0.87" stop-color="#A66EC2" />
      <stop offset="0.94" stop-color="#B670C0" />
      <stop offset="1" stop-color="#BC70BF" />
    </linearGradient>
    <radialGradient id="paint4_radial" cx="0" cy="0" r="1" gradientUnits="userSpaceOnUse" gradientTransform="translate(7.26608 7.46915) rotate(31.7014) scale(7.14342 7.51974)">
      <stop stop-color="#58FAD7" />
      <stop offset="0.498401" stop-color="#3468D2" />
      <stop offset="1" stop-color="#B370C1" />
    </radialGradient>
    <linearGradient id="paint5_linear" x1="2.54488" y1="9.78976" x2="12.1996" y2="1.37438" gradientUnits="userSpaceOnUse">
      <stop stop-color="#46FFD7" />
      <stop offset="0.31" stop-color="#3ECFE7" />
      <stop offset="0.72" stop-color="#3365D1" />
      <stop offset="0.77" stop-color="#3765D0" />
      <stop offset="0.82" stop-color="#4566CF" />
      <stop offset="0.87" stop-color="#5A68CC" />
      <stop offset="0.92" stop-color="#796BC8" />
      <stop offset="0.97" stop-color="#A06EC3" />
      <stop offset="1" stop-color="#BC70BF" />
    </linearGradient>
  </defs>
</svg>